<?xml version="1.0" encoding="UTF-8"?>
<svg id="svg2291" xmlns="http://www.w3.org/2000/svg" viewBox="0 0 121 200">
  <g id="g15972">
    <path id="path3297" d="m53.14,199.31c-6.01-1.98-11.72-7.59-15.76-15.49-.93-1.83-1.7-3.46-1.7-3.62,0-.46,2.82-2.01,2.95-1.62.06.19.86,1.53,1.77,2.99,6.84,10.95,16.21,12.15,20.65,2.65,1.24-2.66,1.84-5.12,2.55-10.56,1.02-7.79,2.6-17.33,3.31-20,1.98-7.48,6.24-13.38,16.88-23.44,9.26-8.75,13.73-15.56,14.25-21.74.11-1.24.09-2.26-.03-2.26s-1.13.8-2.23,1.77c-1.11.97-3.69,3.03-5.74,4.56-5.26,3.93-7.53,5.96-9.09,8.1-.74,1.02-1.45,1.86-1.57,1.86s-.79-1.73-1.5-3.85c-1.01-3.03-1.28-4.3-1.29-5.96-.01-2.5.43-3.49,2.97-6.64,3.3-4.09,4.99-8.64,4.99-13.43,0-5.09-2.23-9.53-8.77-17.38-2.91-3.5-11.35-12.49-11.72-12.49-.12,0-.19,2-.15,4.45.17,10.17-1.78,17.93-7.32,29.1-3.54,7.13-4.28,8.85-5.7,13.14-1.49,4.52-1.96,7.01-2.16,11.46l-.18,3.98-1.31,1.29c-.72.71-1.39,1.21-1.48,1.11-.42-.42-.79-6.49-.63-10.35.29-7.11,1.97-13.47,6.09-23.08,7.8-18.2,9.82-24.96,9.4-31.41-.17-2.67-.41-3.51-3.09-10.68-2.28-6.11-1.63-12.08,1.9-17.65.9-1.41,1-1.76.74-2.41-.17-.42-.86-2.01-1.54-3.53-2.06-4.67-2.57-7.1-2.59-12.32-.01-4.84.35-6.88,1.77-9.99,1.24-2.71,4.68-5.85,6.4-5.85,1.22,0,1.04.52-.64,1.78-3.55,2.68-4.82,7.34-3.61,13.22,1.26,6.11,3.77,10.43,12.09,20.81,19.65,24.52,29.53,38.9,37.28,54.24,4.93,9.76,6.91,14.86,8.96,23.01,2.11,8.39,2.78,15.34,2.17,22.43-1.32,15.43-7.5,26.18-18.12,31.54-7.3,3.68-16.87,4.3-25.45,1.65-3.11-.96-3.01-.75-2.29-5.07.72-4.29,1.24-5.96,1.82-5.9.23.03,1.71.28,3.28.56,6.98,1.26,14.5-.3,20.22-4.18,1.85-1.25,5.21-4.51,6.84-6.61,2.79-3.61,5.01-8.39,6.32-13.57.96-3.82,1.33-11.62.73-15.68-.46-3.11-2.04-8.41-3.83-12.78-6.27-15.31-17.19-31.71-40.8-61.26-1.06-1.33-3.01-3.87-4.34-5.66-1.33-1.78-2.51-3.24-2.64-3.24-.41,0-1.77,2.33-2.29,3.9-.36,1.11-.47,2.21-.37,3.89.26,4.51,2.16,7.33,11.69,17.32,5.81,6.1,9.1,10.06,12,14.48,5.39,8.21,7.34,16.42,5.5,23.23-.18.67-.27,1.27-.2,1.34.41.41,6.22-4.86,7.97-7.23.59-.8,1.19-1.34,1.33-1.2.37.37,2.26,8.03,2.97,11.99.98,5.51,1.32,9.45,1.13,13.18-.2,4.01-.76,5.98-2.8,9.92-2.08,4.02-4.84,7.4-12.84,15.71-7.91,8.22-10.7,11.63-11.7,14.3-1,2.66-2.19,9.28-2.88,16.01-1.02,9.87-1.99,16.72-2.72,19.19-1.09,3.68-3.02,6.19-5.81,7.57-1.77.87-2.34,1-4.9,1.07-2.43.07-3.26-.03-5.19-.67Z" fill="#d4a10f"/>
    <path id="path3295" d="m83.43,186.76c-2.28-1.13-3.94-3.61-5.67-8.51-.61-1.72-.74-2.44-.5-2.69.52-.52,1.1.15,1.83,2.1.91,2.45,1.89,4.06,2.78,4.56.66.37.89.37,1.66,0,.71-.34.91-.65.98-1.55.18-2.13,1.35-1.02,2.29,2.17.66,2.24.62,2.65-.4,3.66-1.05,1.05-1.3,1.07-2.96.25Z" fill="#d4a10f"/>
    <path id="path3291" d="m40.63,50.45c0,3.28,2.72,6.07,6.07,6.07,1.51,0,2.88-.55,3.94-1.46l.79-.57-.12,2.1c-.16,2.76-1.19,4.87-3.76,7.65-2.78,3-5.48,4.94-14.3,10.27-12.04,7.28-16.14,10.14-20.47,14.33-5.57,5.38-9.46,11.91-11.16,18.75-2.33,9.34-1.58,18.31,2.37,28.65,1.13,2.96,1.15,3.12,1.32,8.15.45,13.35,3.8,22.54,10.73,29.43,3.52,3.5,6.74,5.17,10.94,5.69,1.05.13,2.58.18,3.41.11,10.06-.85,14.46-9.17,16.62-31.46.28-2.9.66-5.71.85-6.24.23-.65,2.22-2.67,6.11-6.23,6.13-5.6,7.35-7.19,7.36-9.53,0-1.45-1.23-10.07-1.48-10.35-.11-.12-.81.61-1.55,1.63-1.24,1.7-5.19,5.54-10.35,10.06-3.39,2.96-4.02,4.52-5.17,12.69-2,14.24-4.54,21.75-8.81,26.02-3.94,3.94-10.35,4.94-15.39,2.39-5.12-2.6-8.91-10.38-9.37-19.22l-.18-3.47,2.33,2.18c3.1,2.9,5.62,4.16,8.32,4.16,2.54,0,3.38-.25,4.7-1.41,1.94-1.7,2.86-4.43,2.86-8.52,0-8.17-4.39-17.97-9.18-20.48-1.93-1.01-4.51-.92-6.36.24-1.79,1.11-3.55,3.55-4.46,6.19-.37,1.08-.81,2.03-.98,2.11-.56.27-1.08-3.43-1.09-7.69,0-3.13.16-5.02.62-7.3,1.74-8.52,5.11-14.59,11.77-21.23,4.5-4.49,9.15-8.03,19.57-14.89,8.05-5.3,11.49-8.17,13.4-11.15.84-1.31,1.01-1.45,1.09-.89.29,2.01-2.14,8.25-7.73,19.84-4.58,9.5-6.01,12.81-8.32,19.18-2.91,8.03-4.71,15.2-5.76,22.91-.67,4.94-.91,15.12-.5,21.6.37,5.77,1.65,14.82,2.16,15.33.21.21.63-.03,1.32-.74l1.03-1.05-.55-3.32c-2.02-12.24-1.25-25.3,2.27-38.71,2.49-9.48,5.49-17.04,12.59-31.75,6.26-12.96,7.38-17.34,7.08-27.76-.25-8.64-1.39-13.69-3.7-16.25-1.26-1.4-2.59-2.13-4.35-2.13-4.27,0-6.53,2.77-6.53,6.06Zm-22.59,81.45c.58.02,1.14.16,1.67.43,1.09.56,2.69,2.96,2.69,4.04,0,.42-.41,1.47-.9,2.32-.69,1.21-1.24,1.72-2.47,2.34-2.1,1.05-4.61,1.08-6.74.08-2.31-1.08-2.39-1.28-1.37-3.44,1.7-3.6,4.59-5.84,7.12-5.77Z" fill="#d4a10f"/>
    <path id="path3285" d="m61.29,158.84c-3.83-3.68-7.65-9.05-10.42-14.67l-1.15-2.34,1.33-1.36c.73-.75,1.49-1.36,1.67-1.36s.87.78,1.52,1.74c1.45,2.14,6.48,7.37,9.27,9.65,1.84,1.5,2.04,1.78,1.86,2.47-.11.43-.52,2.32-.91,4.21-.39,1.89-.78,3.5-.86,3.58s-1.13-.78-2.32-1.92Z" fill="#d4a10f"/>
    <path id="path3279" d="m20.47,111.68c-1.09-1.14-1.39-2.59-1.06-5.19.19-1.49.6-2.75,1.37-4.23,1.99-3.79,8.26-9.3,8.26-7.26,0,.12-1.27,1.53-2.83,3.13-4.21,4.33-5.59,7.5-4.09,9.4,1.05,1.33,3,.95,3-.59,0-.85,1-2.1,1.46-1.81.47.29.44,1.29-.08,3.02-1.16,3.85-4.08,5.56-6.02,3.53Z" fill="#d4a10f"/>
    <path id="path3277" d="m62.24,107.5c-.77-2.76-.53-3.14,6.89-11.14,3.05-3.29,5.93-6.51,6.41-7.15.92-1.25.96-1.23,1.43.92.21.96.16,1.5-.22,2.33-.27.59-3,3.81-6.07,7.16-3.07,3.35-6.06,6.74-6.64,7.53-.58.8-1.15,1.46-1.27,1.47-.12,0-.35-.49-.53-1.11Z" fill="#d4a10f"/>
    <path id="path3326" d="m44.9,60.79c0,3.35-2.72,6.07-6.07,6.07s-6.07-2.72-6.07-6.07,2.72-6.07,6.07-6.07,6.07,2.72,6.07,6.07Z" fill="#d4a10f"/>
    <rect id="rect3340" x="65.48" y="124.8" width="10" height="8.65" transform="translate(-76.45 136.37) rotate(-64.19)" fill="#d4a10f"/>
    <rect id="rect3344" x="91.02" y="141.14" width="10" height="8.65" transform="translate(-76.73 168.59) rotate(-64.19)" fill="#d4a10f"/>
    <rect id="rect3346" x="49.25" y="161.86" width="10.12" height="8.65" transform="translate(-108.72 103.02) rotate(-50.72)" fill="#d4a10f"/>
    <rect id="rect3348" x="47.73" y="175.5" width="10.12" height="8.65" transform="translate(-119.83 106.85) rotate(-50.72)" fill="#d4a10f"/>
  </g>
</svg>