<?xml version="1.0" encoding="UTF-8"?>
<svg id="Layer_1" data-name="Layer 1" xmlns="http://www.w3.org/2000/svg" viewBox="0 0 650 200">
  <rect width="650" height="200" fill="#fff"/>
  <g>
    <path d="m60.96,49.55h37.98c11.18,0,19.89,2.24,25.96,6.72,6.13,4.48,9.21,10.91,9.21,19.33,0,4.81-1.1,8.98-3.3,12.47-2.2,3.54-5.45,6.34-9.76,8.42,5.96,1.98,10.52,5.11,13.71,9.4,3.17,4.29,4.74,9.51,4.74,15.62s-1.54,11.22-4.61,15.51c-3.07,4.34-7.45,7.69-13.15,10.04-5.69,2.36-12.47,3.54-20.45,3.54h-40.34V49.55ZM10.39,190h179.78V10.22H10.39v179.78Zm86.63-123.6c10.91,0,16.4,4.01,16.4,12.02,0,4.15-1.39,7.38-4.19,9.69-2.8,2.31-6.85,3.46-12.13,3.46h-15.51v-25.17h15.43Zm2.61,41.01h-18.2v27.3h17.87c6.13,0,10.87-1.16,14.16-3.46,3.3-2.31,4.96-5.63,4.96-9.97,0-9.24-6.28-13.82-18.88-13.82l.1-.06Z"/>
    <path d="m285.67,49.55h37.98c11.18,0,19.89,2.24,25.96,6.72,6.13,4.48,9.21,10.91,9.21,19.33,0,4.81-1.1,8.98-3.3,12.47-2.2,3.54-5.46,6.34-9.76,8.42,5.96,1.98,10.52,5.11,13.71,9.4,3.17,4.29,4.74,9.51,4.74,15.62s-1.54,11.22-4.61,15.51c-3.07,4.34-7.45,7.69-13.15,10.04-5.69,2.36-12.47,3.54-20.45,3.54h-40.34V49.55Zm-50.56,140.45h179.78V10.22h-179.78v179.78Zm86.63-123.6c10.91,0,16.4,4.01,16.4,12.02,0,4.15-1.39,7.38-4.19,9.69-2.8,2.31-6.85,3.46-12.13,3.46h-15.51v-25.17h15.43Zm2.61,41.01h-18.2v27.3h17.87c6.13,0,10.87-1.16,14.16-3.46,3.3-2.31,4.96-5.63,4.96-9.97,0-9.24-6.28-13.82-18.88-13.82l.1-.06Z"/>
    <path d="m574.44,149.55c5.52-1.34,10.37-3.17,14.61-5.47v-19.21c-8.84,5.45-18.54,8.18-28.99,8.18-6.85,0-12.7-1.29-17.53-3.88-4.81-2.58-8.47-6.35-10.99-11.35-2.53-4.94-3.79-10.93-3.79-17.98s1.3-13.03,3.92-17.87c2.62-4.9,6.37-8.64,11.24-11.22,4.9-2.58,10.82-3.88,17.75-3.88,5.04,0,9.85.67,14.38,2.01,4.56,1.34,8.8,3.3,12.7,5.89v-19.66c-4.28-2.21-8.92-3.9-13.93-5.06-5-1.16-10.3-1.73-15.96-1.73-8.09,0-15.39,1.2-21.91,3.61-6.52,2.4-12.13,5.87-16.74,10.39-4.66,4.53-8.24,9.96-10.71,16.29-2.47,6.33-3.71,13.37-3.71,21.24s1.19,15.28,3.57,21.69c2.38,6.43,5.8,11.8,10.28,16.29,4.47,4.44,9.94,7.83,16.4,10.19,6.47,2.36,13.71,3.54,21.8,3.54,6.09,0,11.91-.67,17.42-2.01h.18Zm65.17,40.22h-179.78V10h179.78v179.78Z"/>
  </g>
</svg>