<?xml version="1.0" encoding="UTF-8"?>
<svg id="Layer_1" data-name="Layer 1" xmlns="http://www.w3.org/2000/svg" viewBox="0 0 421 200">
  <path d="m176.37,0c-18.65-.28-35.2,14.79-35.2,36.61v98.25c.02,3.54-2.62,6.67-6.47,6.67h-30.71c-66.46.08-60.52-84.96-3.95-85.04,25.15-.04,33.94,0,33.94,0v-23.83h-35.14c-22.02.04-38.69,8.42-49.91,20.92-11.21,12.5-16.96,29.15-16.95,45.7,0,15.93,5.44,32.46,16.79,44.99,11.35,12.53,28.61,21.1,52.46,21.1h57.97c3.35,0,6.19-2.84,6.19-6.15V39.21c-.04-6.28,3.22-11.32,8.45-12.99h0c5.08-1.62,10.66.49,14.02,5.27v.02s.03.02.03.02c8.15,13.35,28.5,46.1,46.89,75.61,9.19,14.76,17.89,28.71,24.33,39.03,3.22,5.16,5.87,9.41,7.74,12.4,1.85,2.97,2.88,4.62,3,4.8,1.36,1.92,3.06,2.64,4.48,2.19h0c.81-.25,1.44-.82,1.92-1.75s.76-2.23.76-3.79V39.23c-.02-6.26,3.22-11.31,8.47-12.97,5.05-1.62,10.64.49,13.97,5.27v.02s.02.02.02.02c8.16,13.34,28.53,46.09,46.92,75.61,18.38,29.5,34.81,55.82,35.07,56.23,0,0,0,0,0,0,1.33,1.9,3.14,2.66,4.66,2.19.82-.26,1.48-.84,1.97-1.78s.78-2.23.78-3.77V.75h0s-24.04,0-24.04,0v93.02s-14.89-25.24-40.26-68.81C299.73-17.74,252.87-.09,252.85,36.63v57.11s-14.53-25.26-39.89-68.83C202.87,7.58,189.12.2,176.37,0Zm-73.19.74c-138.14-.02-136.83,196.79,1.86,196.88h54.19c23.32.02,38.3-13.82,38.28-39.31v-49.85s30.39,50.39,42.32,70.12c20.29,33.54,69.4,26.94,69.27-14.95v-55.13s30.39,50.37,42.34,70.13c20.29,33.53,69.4,26.93,69.28-14.98V.74h-24v159.3h0c.02,7.53-4.2,11.74-8.22,13.01h0c-4.9,1.56-10.24-.53-13.56-5.28v-.02s-.02-.02-.02-.02c-.69-1.1-65.74-105.26-82-131.88-1.35-1.92-3.33-2.7-5.08-2.15-1.82.58-2.98,2.51-2.98,5.51v120.78h0c.02,7.56-4.13,11.76-8.13,13.04h0s0,0,0,0c-4.83,1.52-10.08-.57-13.38-5.32h0s0-.02,0-.02c-.13-.2-1.18-1.88-3.06-4.89-1.88-3-4.54-7.27-7.77-12.44-6.45-10.34-15.16-24.31-24.36-39.07-18.38-29.51-38.7-62.19-46.82-75.49-1.35-1.91-3.34-2.69-5.1-2.13h0c-1.84.58-3.01,2.51-2.99,5.49h0v120.06c0,7.71-6.32,13.98-14.03,13.98h-57.97c-26.37,0-45.69-9.57-58.36-23.62-12.67-14.04-18.71-32.52-18.72-50.31-.02-18.46,6.38-37.05,18.93-51.05,12.55-14,31.27-23.38,55.74-23.41h35.16V.74h-30.8Z" fill="#ec1c2e"/>
</svg>