<?xml version="1.0" encoding="UTF-8"?>
<svg id="Layer_1" data-name="Layer 1" xmlns="http://www.w3.org/2000/svg" viewBox="0 0 200 200">
  <path d="m196,102.27c0-7.09-.64-13.91-1.82-20.45h-94.18v38.73h53.82c-2.36,12.45-9.45,23-20.09,30.09v25.18h32.45c18.91-17.45,29.82-43.09,29.82-73.55Z" fill="#4285f4"/>
  <path d="m100,200c27,0,49.64-8.91,66.18-24.18l-32.45-25.18c-8.91,6-20.27,9.64-33.73,9.64-26,0-48.09-17.55-56-41.18H10.73v25.82c16.45,32.64,50.18,55.09,89.27,55.09Z" fill="#34a853"/>
  <path d="m44,119c-2-6-3.18-12.36-3.18-19s1.18-13,3.18-19v-25.82H10.73C3.91,68.64,0,83.82,0,100s3.91,31.36,10.73,44.82l25.91-20.18s7.36-5.64,7.36-5.64Z" fill="#fbbc05"/>
  <path d="m100,39.82c14.73,0,27.82,5.09,38.27,14.91l28.64-28.64C149.55,9.91,127,0,100,0,60.91,0,27.18,22.45,10.73,55.18l33.27,25.82c7.91-23.64,30-41.18,56-41.18Z" fill="#ea4335"/>
  <path d="m0,0h200v200H0V0Z" fill="none"/>
</svg>