<?xml version="1.0" encoding="UTF-8"?>
<svg id="Layer_1" data-name="Layer 1" xmlns="http://www.w3.org/2000/svg" viewBox="0 0 200 200">
  <path d="m0,0h199.99v200H0V0Z" fill="#e04403"/>
  <path d="m114.49,28.43h50v50h-50V28.43Zm-62.71,133.47c-8.15,0-16.83-2.27-16.83-22.05s10.47-23.27,19.28-23.27c3.58-.05,7.13.75,10.35,2.33v7.05c-3.32-1.23-6.81-1.97-10.35-2.2-4.47,0-10.47,2.4-10.47,15.56,0,13.96,4.65,15.64,7.88,15.64,2.01-.06,4.02-.27,5.99-.64v-13.39h-5.99l-.63-6.75h15.44v25.46c-4.78,1.35-9.71,2.11-14.67,2.27h0Zm48.97-37.18h-9.71v36.55h-8.83v-36.55h-10.71v-7.56h30.26l-1.01,7.56Zm18.85,37.18c-7.38,0-15.63-2.33-15.63-22.69s10.39-22.68,16.44-22.68c2.8-.06,5.57.48,8.15,1.57v7.12c-2.48-.86-5.07-1.37-7.69-1.51-4.28,0-8.06,2.58-8.06,15.5,0,11.54,2.71,15.44,7.44,15.44,2.84-.1,5.64-.63,8.32-1.57v7.12c-2.83,1.21-5.89,1.79-8.96,1.7h0Zm29.42,0c-6.81,0-15.76-1.38-15.76-22.69s9.52-22.68,15.76-22.68,15.76,1.51,15.76,22.68-9.1,22.69-15.76,22.69Zm0-39.08c-4.41,0-6.98,2.9-6.98,16.38s3.21,16.4,6.98,16.4,6.92-2.53,6.92-16.4-2.59-16.38-6.92-16.38Z" fill="#fff"/>
</svg>