<?xml version="1.0" encoding="UTF-8"?>
<svg id="OBJECTS" xmlns="http://www.w3.org/2000/svg" viewBox="0 0 200 200">
  <path d="m121.97,140.51c-1.69-1.58-4.35-1.48-5.92.21l-13.04,14.01c3.31.56,5.44,2.75,6.39,5.43l12.77-13.73c1.58-1.69,1.48-4.34-.21-5.92Z" fill="#fff"/>
  <path d="m91.56,167.05l-14.17,15.23c-1.58,1.69-1.48,4.34.21,5.92.8.75,1.83,1.12,2.85,1.12h0c1.12.01,2.24-.44,3.07-1.33l14.97-16.09c-3.47-.29-5.78-2.28-6.93-4.85Z" fill="#fff"/>
  <polygon points="100 93.98 127.68 93.98 127.68 124.05 100 140.63 100 93.98" fill="#fff"/>
  <path d="m96.31,97.67v36.45l-20.31-12.16v-24.3h20.31m3.69-3.69h-27.68v30.07l27.68,16.57v-46.65h0Z" fill="#fff"/>
  <g>
    <path d="m103.04,161.2s.04.03.05.04l7.52,8.08,5.79-40.06-16.4,9.49-16.4-9.49,1.89,13.05,17.55,18.88Z" fill="#fff"/>
    <path d="m97.01,167s-.04-.03-.06-.05l-9.36-10.07,5.23,36.2h14.36l1.89-13.11-12.07-12.97Z" fill="#fff"/>
  </g>
  <path d="m119.12,147.76c-1.01,0-2.02-.36-2.82-1.09-1.71-1.56-1.84-4.21-.28-5.92l.46-.51c1.56-1.71,4.21-1.84,5.92-.28s1.84,4.21.28,5.92l-.46.51c-.83.91-1.96,1.37-3.1,1.37Z" fill="#fff"/>
  <g>
    <path d="m57.55,72.23c4.97,8.9,12.66,16.07,21.94,20.39l41.09-.04c9.28-4.33,16.95-11.52,21.91-20.44l-84.94.08Z" fill="#fff"/>
    <path d="m148.5,51.24c.05-.9.08-1.81.08-2.72-.03-26.81-21.81-48.56-48.63-48.52-26.83.02-48.56,21.8-48.54,48.63,0,.91.03,1.81.08,2.7l97-.09ZM99.99,6.47c.93,0,1.68.75,1.68,1.68s-.75,1.68-1.68,1.68h0c-32.05-.01-36.53,30.49-36.71,31.79-.11.84-.83,1.45-1.66,1.45-.07,0-.15,0-.22-.01-.92-.12-1.56-.96-1.44-1.88.05-.35,5.01-34.71,40.03-34.71Z" fill="#fff"/>
  </g>
  <path d="m143.33,128.14c-10.59,0-20.58,4.63-27.41,12.71-1.5,1.77-1.28,4.42.49,5.91,1.77,1.5,4.41,1.28,5.91-.49,5.23-6.19,12.89-9.74,21.01-9.74,15.18,0,27.53,12.34,27.53,27.53s-12.35,27.55-27.53,27.55c-7.87,0-15.39-3.38-20.68-9.35l-12.04-12.94-1.54,10.65,7.38,7.93c6.81,7.69,16.61,12.1,26.88,12.1v-.02c19.8,0,35.91-16.13,35.91-35.93s-16.11-35.91-35.91-35.91Z" fill="#fff"/>
  <path d="m77.32,182.34c-5.23,5.89-12.75,9.27-20.63,9.27-15.18,0-27.54-12.37-27.54-27.55s12.35-27.53,27.54-27.53c7.88,0,15.4,3.39,20.73,9.41l10.17,10.94-2.1-14.57-1.93-2.07-.03-.03c-6.82-7.66-16.59-12.05-26.84-12.05-19.81,0-35.93,16.1-35.93,35.91s16.12,35.93,35.93,35.93h.01c10.28,0,20.08-4.41,26.9-12.1,1.53-1.73,1.37-4.38-.36-5.92-1.73-1.53-4.38-1.37-5.92.36Z" fill="#fff"/>
</svg>