<?xml version="1.0" encoding="UTF-8"?>
<svg id="svg3100" xmlns="http://www.w3.org/2000/svg" viewBox="0 0 340 200">
  <g id="g854">
    <path id="path3113" d="m169.99,25.86C164.7,12.67,151.83-1.59,127.71.37c-30.72,3.34-40.29,32.78-35.65,50.34-12.24-8.29-33.04-11.93-51.2,3.63-23.45,23.5-10.91,55.29,1.98,62.91-14.21-1.32-36.66,8.28-41.62,33.39-5.28,31.18,18.48,49.35,41.62,49.35h256.62c26.76,0,41.61-23.15,39.94-44.98-2.63-28.49-28.7-39.43-42.92-37.09,11.88-6.63,27.75-37.77,3.62-62.26-19.16-18.22-43.58-11.59-52.16-3.64,4.63-15.22-2.96-46.69-34.03-51.66-2.15-.24-4.22-.37-6.19-.37-23.72,0-34.38,17.34-37.73,25.86" fill="#fff"/>
    <path id="path3115" d="m45.13,59.3c-13.55,12.26-18.48,40.05,5.94,56.3l97.43,66.85-47.24-108.23c-9.9-25.54-36.98-31.11-56.13-14.91" fill="#f37021"/>
    <path id="path3117" d="m129,6.68c-15.84.32-39.62,19.18-29.04,47.98l48.86,115.23,17.17-121.21c3.97-30.12-18.82-44.02-36.99-42.01" fill="#cc004c"/>
    <path id="path3119" d="m173.62,44.07h9.24s4.93,0,5.61,2.33c-3.64,2.97-13.53,3.34-12.22,19.2l15.53,104.28,48.53-115.54c9.93-25.8-10.91-47.34-29.39-48-.86-.06-1.73-.11-2.63-.11-16.59,0-35.6,12.06-34.67,37.84" fill="#6460aa"/>
    <path id="path3121" d="m238.36,75.2l-45.9,106.93,97.41-67.2c22.45-15.93,18.83-41.39,6.26-53.97-5.27-5.92-14.94-10.5-25.19-10.5-12.11,0-25.06,6.42-32.58,24.74" fill="#0089d0"/>
    <path id="path3123" d="m278.96,130.15l-91.48,63.89h112.63c23.11,0,37.96-23.83,31.36-45.69-4.42-13.74-17.5-24.53-32.69-24.55-6.39,0-13.17,1.93-19.83,6.34" fill="#0db14b"/>
    <path id="path3125" d="m42.51,194.04h110.97l-91.5-63.89c-21.14-13.58-44.91-5.63-53.49,16.9-7.27,25.8,10.89,46.99,34.01,46.99" fill="#fcb711"/>
  </g>
</svg>