<?xml version="1.0" encoding="UTF-8"?>
<svg id="OBJECTS" xmlns="http://www.w3.org/2000/svg" viewBox="0 0 500 500">
  <g>
    <path d="m243.78,253.9c-1.54,0-3.09-.56-4.31-1.69-2.56-2.38-2.7-6.38-.32-8.94l28.82-30.97c2.37-2.56,6.38-2.7,8.94-.32,2.56,2.38,2.7,6.38.32,8.94l-28.82,30.97c-1.25,1.34-2.93,2.02-4.63,2.02Z" fill="#02511c"/>
    <path d="m214.26,285.61c-1.54,0-3.09-.56-4.31-1.69-2.56-2.38-2.7-6.38-.32-8.94l29.51-31.71c2.38-2.56,6.38-2.7,8.94-.32,2.56,2.38,2.7,6.38.32,8.94l-29.51,31.71c-1.25,1.34-2.94,2.02-4.63,2.02Z" fill="#02511c"/>
    <g>
      <polyline points="243.76 291.3 232.93 291.3 219.01 195.01 243.76 209.32 268.5 195.01 254.58 291.3 243.76 291.3" fill="#27ae60"/>
      <path d="m201.99,141.78h83.52s-21.78-5.41-41.76-5.41-41.76,5.41-41.76,5.41Z" fill="#27ae60"/>
      <polygon points="243.76 141.78 285.52 141.78 285.52 187.15 243.76 212.16 243.76 141.78" fill="#02511c"/>
      <path d="m238.19,147.34v55l-30.63-18.34v-36.65h30.63m5.56-5.56h-41.76v45.37l41.76,25.01v-70.38h0Z" fill="#02511c"/>
    </g>
    <path d="m309.12,301.73c-15.49,0-30.28-6.65-40.56-18.25l-29.41-31.6c-2.38-2.56-2.24-6.56.32-8.94,2.56-2.38,6.56-2.24,8.94.32l29.51,31.71c7.98,9,19.32,14.1,31.2,14.1,22.9,0,41.53-18.64,41.53-41.56s-18.63-41.53-41.53-41.53c-12.25,0-23.8,5.35-31.69,14.69-2.26,2.67-6.25,3-8.91.75-2.67-2.25-3-6.25-.75-8.91,10.3-12.18,25.37-19.17,41.35-19.17,29.88,0,54.18,24.31,54.18,54.18s-24.31,54.21-54.18,54.21Z" fill="#02511c"/>
    <path d="m178.41,301.73c-29.89,0-54.2-24.32-54.2-54.21s24.32-54.18,54.2-54.18c15.46,0,30.2,6.63,40.49,18.18.02.02.03.03.05.05l29.46,31.69c2.38,2.56,2.23,6.56-.33,8.94-2.56,2.38-6.56,2.23-8.94-.33l-29.46-31.69c-8.04-9.08-19.38-14.2-31.27-14.2-22.91,0-41.56,18.63-41.56,41.53s18.64,41.56,41.56,41.56c11.9,0,23.24-5.1,31.12-13.99,2.32-2.62,6.32-2.86,8.93-.54,2.61,2.32,2.86,6.31.54,8.93-10.28,11.6-25.07,18.25-40.59,18.25Z" fill="#02511c"/>
    <path d="m272.6,222.92c-1.52,0-3.04-.54-4.25-1.65-2.58-2.35-2.77-6.35-.42-8.93l.69-.76c2.35-2.58,6.35-2.77,8.93-.42,2.58,2.35,2.77,6.35.42,8.93l-.69.76c-1.25,1.37-2.96,2.07-4.68,2.07Z" fill="#02511c"/>
    <path d="m243.68,0c-40.48.03-73.26,32.89-73.24,73.37.03,29.39,17.36,54.73,42.36,66.37l62-.06c24.98-11.66,42.26-37.06,42.24-66.47C317,32.75,284.15-.05,243.68,0Zm.06,14.82c-48.35,0-55.12,46.01-55.38,47.97-.17,1.27-1.26,2.19-2.51,2.19-.11,0-.22,0-.34-.02-1.38-.19-2.35-1.46-2.17-2.84.07-.52,7.56-52.36,60.4-52.36,1.4,0,2.53,1.13,2.53,2.53s-1.13,2.53-2.53,2.53Z" fill="#02511c"/>
    <path d="m323.54,85.63l-5.13,18.39c-.79,2.84-3.38,4.8-6.32,4.81l-136.62.13c-2.95,0-5.54-1.96-6.33-4.8l-5.16-18.38c-1.18-4.19,1.97-8.35,6.32-8.35l146.91-.14c4.35,0,7.51,4.15,6.34,8.34Z" fill="#27ae60"/>
  </g>
  <polygon points="409.5 500 119.29 500 144.59 436.71 434.8 436.71 409.5 500" fill="#27ae60"/>
  <text transform="translate(65.2 421.59)" fill="#02511c" font-family="BebasNeue-Regular, &apos;Bebas Neue&apos;" font-size="137.22"><tspan x="0" y="0">infinite</tspan></text>
  <text transform="translate(199.86 484.89)" fill="#fff" font-family="Montserrat-MediumItalic, Montserrat" font-size="48.15" font-style="italic" font-weight="500"><tspan x="0" y="0">N</tspan><tspan x="39.1" y="0" letter-spacing="0em">E</tspan><tspan x="70.88" y="0" letter-spacing="-.02em">W</tspan><tspan x="124.37" y="0" letter-spacing="0em">S</tspan></text>
</svg>